<svg id="Layer_1" enable-background="new 0 0 512 512" height="512" viewBox="0 0 512 512" width="512" xmlns="http://www.w3.org/2000/svg"><g><g><g><path d="m256 0c-98.516 0-159.202 55.569-159.37 55.662 0 0-2.523 3.149-2.995 5.242-3.833 17.014-7.414 39.819-7.414 56.459 0 141.385 119.229 255.972 260.614 255.972 54.444 0 115.017-26.094 155.557-57.467.907-.702 3.784-5.417 3.784-5.417.179-1.091 5.823-23.569 5.823-54.452.001-141.384-114.614-255.999-255.999-255.999z" fill="#fffad7"/></g><g><path d="m346.814 366.109c-141.385 0-256-114.615-256-256 0-18.688 2.015-36.897 5.818-54.447-44.103 35.135-76.355 84.525-89.763 141.197l325.751 303.449c86.522-27.137 153.886-99.063 173.556-189.858-43.729 34.833-99.111 55.659-159.362 55.659z" fill="#f9efaf"/></g></g><g><g><g><path d="m363.738 127.121c-40.632-35.172-93.62-56.453-151.578-56.453-50.96 0-90.736 16.428-115.496 30.522l-1.708 1.335c-22.367 17.492-35.962 44.068-36.447 72.46-.011.647-.017 1.283-.017 1.91 0 127.969 107.916 231.684 235.885 231.684 49.279 0 104.104-23.618 140.797-52.014.821-.635 3.425-4.903 3.425-4.903.068-.416 1.011-4.254 2.081-10.642z" fill="#70c6da"/></g><g><path d="m294.356 402.038c-96.712 0-179.586-59.25-214.3-143.432-6.868-3.455-14.03-5.377-21.139-5.934-13.708-1.073-24.407 11.654-20.98 24.97l42.338 164.524c45.851 43.292 107.688 69.834 175.725 69.834 11.788 0 23.403-.801 34.794-2.354l84.278-42.506c31.235-30.864 53.81-70.627 63.526-115.478-39.58 31.526-89.707 50.376-144.242 50.376z" fill="#63afcb"/></g></g><g><path d="m231.565 190.032c-17.163.28-30.993 14.272-30.993 31.502v40.437c0 13.92-11.17 25.701-25.088 25.481-9.848-.156-17.811 8.097-17.175 18.047.555 8.722 8.61 15.824 17.349 15.824h14.753c5.693 0 10.048 4.676 10.162 10.368.11 5.517 4.617 9.955 10.16 9.955 18.418 0 33.349 14.93 33.349 33.348v21.557l82.244 22.139 68.725-38.231c0-21.436 17.378-38.814 38.814-38.814 2.328 0 4.6-.231 6.815-.626 1.475-8.802 3.191-22.439 3.191-38.642 0-70.01-31.05-132.769-80.131-175.256h-66.026c-12.864 0-23.267 10.505-23.145 23.329.066 8.536-6.612 15.578-15.148 15.578h-3.298c-.796.012-5.455.162-8.921 3.996-2.849 3.151-3.087 6.793-3.12 7.808-.021.805-.227 5.603-4.23 9.117-3.392 2.976-7.287 3.085-8.287 3.083z" fill="#aad880"/></g><g><path d="m385.256 452.688c1.455-.029 2.828-.377 4.067-.964 1.855-2.198 3.668-4.433 5.443-6.701.179-.749.284-1.527.284-2.331v-62.232c0-.477.019-.949.036-1.422-30.458 14.732-64.626 23-100.729 23-17.266 0-34.086-1.904-50.275-5.486v32.881c0 12.881 10.541 23.168 23.423 23.257 12.768.089 23.091 10.467 23.091 23.256v29.609c0 1.38.068 2.745.2 4.09 14.337-1.955 28.316-5.1 41.827-9.337 15.406-9.39 29.65-20.535 42.442-33.175-.008-.833-.016-1.567-.021-2.199h.011c-.057-.401-.346-6.094 3.996-9.734 2.64-2.214 5.211-2.507 6.205-2.512z" fill="#78d090"/></g><g><path d="m144.064 150.054c-.96-12.816-12.262-22.268-24.984-21.025-3.41.333-6.504-2.059-6.821-5.471-.932-10.042-7.126-18.315-15.595-22.365-18.56 10.565-28.687 19.82-28.752 19.857-25.597 20.393-28.821 64.895-27.295 97.281 1.013 21.496 17.967 38.818 39.438 40.271l1.859-.182c16.134-1.579 28.884-14.374 30.405-30.514l4.497-47.698c.281-2.982 2.637-5.345 5.618-5.635l.545-.053c12.435-1.214 22.018-12.006 21.085-24.466z" fill="#aad880"/></g><g><path d="m99.087 412.767c6.03-.638 10.558-5.746 9.968-11.78l-2.683-27.438c-.599-6.123-6.087-10.313-12.221-9.836-5.944.462-11.192-3.917-11.774-9.879l-5.067-51.78c-.728-7.438-7.299-13.191-14.725-12.347-7.601.863-14.409-4.664-15.152-12.251l-.187-1.909c-.735-7.513 4.76-14.2 12.273-14.935l20.55-2.011c-11.22-27.208-17.424-57.013-17.424-88.271 0-16.915 1.824-33.395 5.266-49.28-24.618 19.613-45.156 44.132-60.131 72.081-5.079 20.113-7.78 41.176-7.78 62.869 0 73.348 30.847 139.491 80.276 186.164 5.888-.73 10.154-6.026 9.572-11.966l-.532-5.443c-.097-.823-.417-4.335 1.959-7.605 2.807-3.863 7.148-4.323 7.812-4.383z" fill="#78d090"/></g></g><g><g><path d="m490.247 151.865v-30.118h-26.155c-4.459 0-8.383-2.962-9.585-7.255-1.798-6.421-4.354-12.527-7.565-18.213-2.174-3.851-1.426-8.696 1.702-11.824l18.495-18.495-21.296-21.296-18.495 18.495c-3.127 3.127-7.972 3.876-11.824 1.702-5.686-3.211-11.791-5.766-18.212-7.564-4.295-1.203-7.255-5.126-7.255-9.585v-26.157h-30.118v26.156c0 4.459-2.962 8.383-7.255 9.585-6.421 1.798-12.527 4.354-18.213 7.564-3.852 2.174-8.696 1.426-11.824-1.702l-18.497-18.495-21.296 21.297 18.495 18.495c3.127 3.127 3.876 7.972 1.702 11.823-3.211 5.686-5.766 11.792-7.565 18.213-1.203 4.295-5.126 7.255-9.585 7.255h-26.156v30.118h26.156c4.459 0 8.383 2.961 9.585 7.255 1.798 6.421 4.354 12.527 7.565 18.213 2.174 3.851 1.426 8.696-1.702 11.824l-18.495 18.495 21.296 21.296 18.495-18.495c3.127-3.127 7.972-3.875 11.823-1.702 5.686 3.211 11.792 5.766 18.213 7.565 4.295 1.203 7.255 5.126 7.255 9.585v26.155h30.118v-26.155c0-4.459 2.962-8.383 7.255-9.585 6.421-1.798 12.526-4.354 18.213-7.564 3.851-2.174 8.696-1.426 11.824 1.702l18.495 18.495 21.296-21.296-18.495-18.495c-3.127-3.127-3.876-7.972-1.702-11.824 3.211-5.686 5.766-11.791 7.564-18.213 1.203-4.295 5.126-7.255 9.585-7.255z" fill="#c14098"/></g><g><g><circle cx="374.996" cy="136.806" fill="#dd4fb1" r="45.28"/></g></g><g><g><circle cx="374.996" cy="21.555" fill="#8659b9" r="21.555"/></g></g><g><g><circle cx="374.673" cy="252.057" fill="#8659b9" r="21.555"/></g></g><g><g><circle cx="293.454" cy="55.198" fill="#8659b9" r="21.555"/></g></g><g><g><circle cx="456.215" cy="218.415" fill="#8659b9" r="21.555"/></g></g><g><g><circle cx="259.584" cy="136.645" fill="#8659b9" r="21.555"/></g></g><g><g><circle cx="490.085" cy="136.968" fill="#8659b9" r="21.555"/></g></g><g><g><circle cx="293.225" cy="218.186" fill="#8659b9" r="21.555"/></g></g><g><g><circle cx="456.443" cy="55.426" fill="#8659b9" r="21.555"/></g></g></g></g></svg>